<svg width="273" height="273" viewBox="0 0 273 273" fill="none" xmlns="http://www.w3.org/2000/svg">
<path d="M169.982 136.042L264.982 41.0416C269.49 36.5409 272.026 30.4335 272.032 24.0628C272.038 17.6922 269.512 11.5803 265.012 7.07163C260.511 2.56295 254.403 0.0268434 248.033 0.0212173C241.662 0.0155913 235.55 2.54091 231.042 7.04163L136.042 102.042L41.0416 7.04163C36.533 2.53295 30.4179 0 24.0416 0C17.6654 0 11.5503 2.53295 7.04163 7.04163C2.53295 11.5503 0 17.6654 0 24.0416C0 30.4179 2.53295 36.533 7.04163 41.0416L102.042 136.042L7.04163 231.042C2.53295 235.55 0 241.665 0 248.042C0 254.418 2.53295 260.533 7.04163 265.042C11.5503 269.55 17.6654 272.083 24.0416 272.083C30.4179 272.083 36.533 269.55 41.0416 265.042L136.042 170.042L231.042 265.042C235.55 269.55 241.665 272.083 248.042 272.083C254.418 272.083 260.533 269.55 265.042 265.042C269.55 260.533 272.083 254.418 272.083 248.042C272.083 241.665 269.55 235.55 265.042 231.042L169.982 136.042Z" fill="white"/>
</svg>
