<svg width="17" height="18" viewBox="0 0 17 18" fill="none" xmlns="http://www.w3.org/2000/svg">
<path d="M13.6008 4.58517H6.41526C5.39632 4.58517 4.57031 5.41118 4.57031 6.43011V13.6157C4.57031 14.6346 5.39632 15.4606 6.41526 15.4606H13.6008C14.6198 15.4606 15.4458 14.6346 15.4458 13.6157V6.43011C15.4458 5.41118 14.6198 4.58517 13.6008 4.58517Z" stroke="white" stroke-width="1.03576" stroke-linejoin="round"/>
<path d="M12.8407 4.58516L12.8569 3.80834C12.8555 3.32804 12.6641 2.86779 12.3245 2.52817C11.9849 2.18854 11.5246 1.99713 11.0443 1.99577H4.05296C3.50406 1.99739 2.9781 2.21616 2.58997 2.60429C2.20184 2.99242 1.98307 3.51838 1.98145 4.06728V11.0587C1.98281 11.539 2.17422 11.9992 2.51385 12.3388C2.85347 12.6785 3.31372 12.8699 3.79402 12.8712H4.57084" stroke="white" stroke-width="1.03576" stroke-linecap="round" stroke-linejoin="round"/>
</svg>
